<svg xmlns="http://www.w3.org/2000/svg" width="26" height="17.524" viewBox="0 0 26 17.524">
  <path id="Path_356" data-name="Path 356" d="M24,100.627V99.34a11.263,11.263,0,0,0-9.014-11.033v-.969a2.241,2.241,0,0,0-4.482,0v.969A11.263,11.263,0,0,0,1.5,99.34v1.287H0v1.494H25.5v-1.494ZM12,87.338a.747.747,0,0,1,1.494,0v.772c-.248-.016-.5-.025-.747-.025s-.5.009-.747.025v-.772Zm-9.014,12a9.761,9.761,0,1,1,19.521,0v1.287H2.99Z" transform="translate(0.25 -84.847)" fill="#b1bace" stroke="#b1bace" stroke-linecap="round" stroke-linejoin="round" stroke-width="0.5"/>
</svg>
